<svg id="Calque_1" data-name="Calque 1" xmlns="http://www.w3.org/2000/svg" viewBox="0 0 410 356"><defs><style>.cls-1{stroke:#fff;stroke-miterlimit:10;stroke-width:4.87px;}</style></defs><title>xraytranspBlack</title><path class="cls-1" d="M195.27,288.62c-76.85,0-139.16-62.82-139.16-140.31S118.41,8,195.27,8,334.43,70.81,334.43,148.31a140.49,140.49,0,0,1-59.59,115.13c-13.66,10.23-41,19.41-70.64,19.41-77,0-139.41-60.32-139.41-134.74S127.21,13.38,204.2,13.38,343.61,73.7,343.61,148.11c0,45.77-32,88.81-69,109C264,263,257.7,252,254.15,246.33s-14.57-33.72-16.86-40.83-7.57-22.59-9.29-27.29S214.72,151,214.12,142.88c-1-14,10.33-30.74,10.21-38.2S214.91,96,210.22,90.46c-6.65-7.8-.46-17.66-1.26-24.54s-5.62-10.21-10.09-9.87-9.52,2.76-9.52,11.82,3.09,27.29,27.07,23.62,53.81-20,64.19-20.76c11.62-.84,27.3-4.78,22.69-10.89-7.28-9.66-19.95,14.92-43,28.48-19.8,11.63-41.62,23-59.57,23.16-44.57.36-82.8-42.57-92.59-51.92-7.08-6.74-17,5.07-2,8.42,16.41,3.63,51.53,11,59,21.41s19.42,39.76,19.27,50.92-4.13,24.32-11.32,39S147,245.37,144.5,253.17s-2.75,13.34-8.14,10.25-8.15-3.44-5.16-5.74,19.3-12.9,30.28-28.78c14.11-20.42,36.82-57.58,38.88-57.81s18,26.26,19.84,31.77,3.22,17.43,7.58,22.48,20.41,23.62,22,32.11,2.12,12.22,7.51,10.38"/><path d="M21.18,316.59l-3.86,21.6h9.81q1.71,0,1.44,1.62l-.94,5.4a1.74,1.74,0,0,1-1.85,1.62H7.7c-1.14,0-1.6-.54-1.39-1.62l5-28.62A1.7,1.7,0,0,1,13.08,315H19.7C20.87,315,21.36,315.53,21.18,316.59Z"/><path d="M31.68,345.21l5-28.62A1.68,1.68,0,0,1,38.42,315H45c1.14,0,1.62.49,1.44,1.48L41.41,345.2a1.74,1.74,0,0,1-1.84,1.63H33C31.93,346.83,31.47,346.29,31.68,345.21Z"/><path d="M67.75,335.63h-10L56,345.2a1.73,1.73,0,0,1-1.82,1.63H47.75c-1.14,0-1.6-.54-1.39-1.61l5-28.62A1.68,1.68,0,0,1,53.14,315H71.79q1.71,0,1.44,1.62l-.86,4.86a1.71,1.71,0,0,1-1.79,1.62H60l-.82,4.64H69c1.11,0,1.58.54,1.4,1.62l-.81,4.72a1.69,1.69,0,0,1-1.81,1.58Z"/><path d="M93.6,334.54H83.43l-.77,4.19h11q1.71,0,1.44,1.62l-.85,4.86a1.74,1.74,0,0,1-1.85,1.62H73.3c-1.14,0-1.6-.54-1.39-1.62l5-28.62A1.69,1.69,0,0,1,78.67,315H97.52q1.71,0,1.44,1.62l-.86,4.86a1.71,1.71,0,0,1-1.79,1.62H85.45l-.67,3.73h10c1.11,0,1.58.54,1.4,1.62L95.4,333a1.67,1.67,0,0,1-1.79,1.54Z"/><path d="M116.86,327.17h9.5q1.62,0,1.35,1.62l-2.57,14.53a2.45,2.45,0,0,1-1.39,1.71,23.38,23.38,0,0,1-11.12,2.34q-6.39,0-10-3T99,335.22a28.36,28.36,0,0,1,.45-4.5q1.48-8.6,6.25-12.44t12.51-3.85q6.62,0,9.9,2.48a1.77,1.77,0,0,1,.72.92,2.07,2.07,0,0,1-.31,1.24l-2.34,4.05a1.71,1.71,0,0,1-2.31.75l-.08,0a14.21,14.21,0,0,0-5.08-.94c-2.88,0-5,.58-6.41,1.76s-2.37,3.25-2.91,6.25a17,17,0,0,0-.27,2.84,4.87,4.87,0,0,0,1.47,4,7.1,7.1,0,0,0,4.52,1.19,8.37,8.37,0,0,0,2.34-.27l.76-4.41h-2.47c-1.08,0-1.53-.52-1.35-1.57l.67-3.87a1.69,1.69,0,0,1,1.74-1.64Z"/><path d="M142.6,347.33q-12,0-12-9.41a19.55,19.55,0,0,1,.27-3.06l3.27-18.27a1.68,1.68,0,0,1,1.76-1.6h6.62c1.13,0,1.6.54,1.42,1.61l-3.05,17.33a13.81,13.81,0,0,0-.14,1.93,2.45,2.45,0,0,0,2,2.85,2.54,2.54,0,0,0,.87,0,3.67,3.67,0,0,0,2.9-1.13A7.32,7.32,0,0,0,148,334l3.05-17.4a1.69,1.69,0,0,1,1.76-1.62h6.62q1.71,0,1.44,1.62l-3.27,18.27q-1.12,6.39-4.74,9.43T142.6,347.33Z"/><path d="M174.55,315h8.1a1.64,1.64,0,0,1,1.8,1.44l4.28,28.49a1.76,1.76,0,0,1-.27,1.41,1.46,1.46,0,0,1-1.22.52h-6.7c-1.11,0-1.71-.5-1.8-1.49l-.36-3.46h-8.6l-1.57,3.46a2.24,2.24,0,0,1-2.16,1.49h-7a1.14,1.14,0,0,1-1.1-.54,1.44,1.44,0,0,1,.16-1.39l14.35-28.49A2.19,2.19,0,0,1,174.55,315Zm-1.84,18.9h5.44l-.9-9.27h-.13Z"/><path d="M198.49,315h11.1q12.35,0,12.35,8.73a17,17,0,0,1-.27,2.84,11.89,11.89,0,0,1-7.47,9.36l3.82,8.9a1.64,1.64,0,0,1,0,1.45,1.23,1.23,0,0,1-1.18.58h-6.22a2,2,0,0,1-2.12-1.3l-3.2-8.15h-2.66l-1.4,7.8a1.71,1.71,0,0,1-1.78,1.63h-6.43c-1.16,0-1.64-.54-1.43-1.61l5-28.62a1.67,1.67,0,0,1,1.72-1.61Zm5.57,14.71h3.25a5.29,5.29,0,0,0,3.17-.78,3.82,3.82,0,0,0,1.38-2.48,4.79,4.79,0,0,0,.09-1.07,1.91,1.91,0,0,0-.81-1.79,5.31,5.31,0,0,0-2.66-.49h-3.24Z"/><path d="M233.89,346.83H223.55c-1.14,0-1.6-.54-1.39-1.61l5-28.63a1.68,1.68,0,0,1,1.78-1.59h9.73q6.84,0,10.24,2.81t3.4,8.8a26.06,26.06,0,0,1-.36,4.32q-1.35,8.37-5.67,12.15T233.89,346.83Zm3.24-23.4h-1.4l-2.59,14.94h1.4a7,7,0,0,0,5-1.6q1.71-1.59,2.48-5.87a20.65,20.65,0,0,0,.31-2.93,4.33,4.33,0,0,0-1.24-3.53A6.23,6.23,0,0,0,237.13,323.43Z"/><path d="M280.4,338.5l-5.8,6.86a3.14,3.14,0,0,1-2.47,1.47h-6.9a1,1,0,0,1-1-.63,1.49,1.49,0,0,1,.43-1.4l11.95-14.12L269.91,317a1.51,1.51,0,0,1,0-1.4A1.17,1.17,0,0,1,271,315h6.81a2.25,2.25,0,0,1,2.09,1.63l3.14,6.46,5.59-6.6a5.09,5.09,0,0,1,1.12-1.15,2.32,2.32,0,0,1,1.31-.34H298a.93.93,0,0,1,1,.63,1.46,1.46,0,0,1-.42,1.4l-11.7,13.86L293.69,345a1.29,1.29,0,0,1,0,1.29,1.15,1.15,0,0,1-1.11.59h-6.81a2.16,2.16,0,0,1-2-1.49Z"/><path d="M309.73,337.47H297.85c-1.05,0-1.48-.51-1.3-1.53l.76-4.23a1.61,1.61,0,0,1,1.68-1.53H310.9c1.08,0,1.53.49,1.35,1.49l-.76,4.27a1.64,1.64,0,0,1-1.74,1.53Z"/><path d="M320.8,315h11.09q12.36,0,12.36,8.73a17,17,0,0,1-.27,2.84,11.89,11.89,0,0,1-7.47,9.36l3.82,8.9a1.68,1.68,0,0,1,.05,1.45,1.24,1.24,0,0,1-1.18.58H333a2,2,0,0,1-2.12-1.3l-3.2-8.15H325l-1.4,7.8a1.71,1.71,0,0,1-1.78,1.63h-6.43c-1.17,0-1.64-.54-1.43-1.61l5-28.62a1.69,1.69,0,0,1,1.76-1.61Zm5.57,14.71h3.25a5.29,5.29,0,0,0,3.17-.78,3.82,3.82,0,0,0,1.38-2.48,4.79,4.79,0,0,0,.09-1.07,1.91,1.91,0,0,0-.81-1.79,5.31,5.31,0,0,0-2.66-.49h-3.24Z"/><path d="M359.32,315h8.1a1.64,1.64,0,0,1,1.8,1.44l4.28,28.49a1.77,1.77,0,0,1-.28,1.41,1.41,1.41,0,0,1-1.21.52H365.3c-1.11,0-1.71-.5-1.8-1.49l-.36-3.46h-8.59L353,345.34a2.24,2.24,0,0,1-2.16,1.49h-7a1.14,1.14,0,0,1-1.1-.54,1.47,1.47,0,0,1,.15-1.39l14.36-28.49A2.19,2.19,0,0,1,359.32,315Zm-1.85,18.9h5.45l-.9-9.27h-.14Z"/><path d="M390.46,335.08l-1.8,10.13a1.74,1.74,0,0,1-1.84,1.62h-6.57c-1.14,0-1.61-.54-1.4-1.62l1.8-10.13L373.9,317a1.55,1.55,0,0,1,.14-1.4,1.34,1.34,0,0,1,1.21-.63h6.8a1.92,1.92,0,0,1,2,1.49l1.89,7.15.77,3.92h.18l2.11-3.92,4.5-7.15a2.64,2.64,0,0,1,2.3-1.49h6.88a1.06,1.06,0,0,1,1.08.63,1.4,1.4,0,0,1-.27,1.4Z"/></svg>